<?xml version="1.0" encoding="utf-8"?>
<!-- Generator: Adobe Illustrator 25.0.1, SVG Export Plug-In . SVG Version: 6.00 Build 0)  -->
<svg version="1.1" id="katman_1" xmlns="http://www.w3.org/2000/svg" xmlns:xlink="http://www.w3.org/1999/xlink" x="0px" y="0px"
	 viewBox="0 0 560 400" style="enable-background:new 0 0 560 400;" xml:space="preserve">
<style type="text/css">
	.st0{fill:#FFFFFF;}
	.st1{fill:#99CC33;}
	.st2{fill:#669933;}
</style>
<g transform="matrix(.461587 0 0 .461587 430.119582075 -581.48505448)">
	<path class="st0" d="M27.2,1480.4c-11.4-18.8-40.6-28.2-66.9-37.7c-49.6-18.3-54-25.3-78.3-36.2c-27.8-14.9-55.5-25.8-82.3-32.2
		c-58-14.4-103.1-14.9-137.3-9.9c-87.2,12.4-176.4,61-236.4,127.4c-13.4,15.4-25.8,29.7-36.7,46.6c-30.2,46.1-52,103.6-57.5,159.6
		c-3,33.7,3.5,63.9-8.9,100.1c-11.4,32.2-17.3,64.4-4.5,97.1c5.9,15.9,15.4,28.8,34.7,41.1c26.3,16.3,53,16.3,78.8,28.2
		c6.9,3,41.1,25.3,59.5,32.7c21.3,8.9,36.7,13.4,49.1,16.4c29.2,7.4,61,10.9,94.7,10.9c49.1-0.5,103.1-9.4,161.1-36.7
		c43.6-20.3,90.7-51.5,127.9-89.7c18.8-18.8,31.7-37.7,43.1-54.5c14.4-21.3,26.3-44.6,34.7-65.4c11.4-27.2,18.8-55,23.8-81.3
		c7.9-44.1,7.9-85.2,7.9-114.5c0-24.8,5.9-45.6,4.5-66.9C38.1,1504.2,35.1,1493.8,27.2,1480.4z"/>
	<g>
		<path class="st1" d="M20.2,1489.3c-4-7.4-8.9-12.4-14.9-16.8c-1-0.5-1.5-1-3-1.5c-0.5-0.5-1-0.5-1.5-1
			c-11.4-6.4-24.8-9.9-38.2-14.9c-3-1-5,1-3,3c31.7,36.7,34.7,65.4-1,22.3c-95.1-115-260.2-109.5-271.1-108.5
			c-9.4,0.5-18.8,1.5-28.2,3c-84.7,13.4-166.5,59-225,122.9c-13.4,14.9-25.8,30.2-36.7,47.1c-29.2,44.6-48.6,96.1-54.5,149.2
			c-4,33.2,5.5,73.3-7.9,104.6c-19.3,46.1-14.4,106.1,37.7,126.4c6.4,2.5,15.4,5.4,21.8,7.4c18.8,5.4,38.2,5.9,56,15.4
			c3.5,1.5,6.9,3.5,9.9,5.5c3.5,2,6.4,3.5,9.9,5.5c13.4,7.9,26.8,15.8,41.6,21.8c0.5,0.5,1,0.5,2,1c1,0.5,2.5,1,3.5,1.5
			c39.1,15.9,80.8,22.8,121.9,23.8c6.4,0,12.9,0,19.3-0.5c3,0,6.4-0.5,9.4-0.5c6.4-0.5,12.9-1,18.8-1.5c6.4-1,12.9-1.5,18.8-3
			c3-0.5,6.4-1,9.4-1.5c34.7-6.9,67.9-18.3,99.6-34.7c4-2,7.4-4,11.4-6c3.5-2,7.4-4.4,10.9-6.4c7.4-4.5,14.4-8.9,21.3-13.4
			c10.9-7.4,20.8-14.9,30.2-22.8c5-4,9.4-8.4,13.9-12.4c8.9-8.4,17.8-17.3,25.8-26.8c11.9-13.9,22.8-28.7,32.7-44.1
			c25.8-40.6,43.1-86.7,53-135.3c0.5-2.5,1-4.5,1-6.5c0.5-2,1-4.4,1-6.4c5.5-33.2,7.4-67.4,5.5-102.6
			C22.2,1547.8,38.1,1522.5,20.2,1489.3L20.2,1489.3z M-434.7,1455.1c-67.4,38.7-42.1,1.5,5.5-23.8c75.3-39.7,157.1-26.8,157.1-26.8
			S-351.4,1407.5-434.7,1455.1"/>
		<g>
			<path class="st2" d="M-539.3,1904.1c-5.5-5.9-13.4-13.9-18.3,4.5c-6.9,24.8-31.7,23.8-43.6,21.8c-1.5-0.5-3-1-4-1
				c-6.4-1.5-12.4-3.5-18.8-6.4c-52-19.8-60-77.8-40.6-123.9c0,0-43.6,95.2,29.2,132.8c23.8,12.4,51,12.4,74.8,25.3
				c6.9,3.5,13.4,7.4,19.8,11.4c13.4,7.4,26.8,15.9,41.1,21.8c1.5,1,3.5,1.5,5.5,2.5c96.1,38.2,205.7,28.3,296.8-18.3
				c15.9-7.9,29.7-17.3,44.1-25.8c28.2-16.8,55-41.6,55-41.6C-158.7,1946.2-382.7,2078-539.3,1904.1"/>
			<path class="st2" d="M-635.9,1855.5c12.4-8.9,20.8,3.5,26.8,12.9c6.4,9.4,4.5,16.8-2.5,21.3c-6.9,4.5-18.3-0.5-24.8-10.4
				c-6.4-9.4-5-16.4-3-20.3L-635.9,1855.5z"/>
			<path class="st2" d="M-182.9,1731.1c-3-18.8-14.4-26.3-32.2-22.8c-1.5,0.5-3.5,0.5-5,1c0.5-1.5,0.5-2.5-0.5-2.5
				c-4,0.5-8.9,4.5-10.4,6c-1,1-3,2.5-5,4.9c-8.9,8.4-12.9,18.8-12.9,30.2c0,19.8,12.4,30.2,24.3,39.7c11.9,8.9,21.8,16.4,21.8,28.7
				c0,10.4-6.4,14.4-12.4,15.9c-8.9,1.5-12.9-4-12.9-14.9v-7.9c0-3-2-4.5-5-4l-3,0.5l-5-3.5l-7.4,6.9c-1,1-1.5,2.5-1.5,3.5v9.4
				c0,20.8,12.9,33.2,34.2,29.7c6.9-1,12.9-4,18.3-7.4c0.5-0.5,0.5-0.5,1-0.5c5-3.5,8.9-7.9,13.4-13.9c0.5-1-1-2.5-1-3
				c1-3,3-6.9,3.5-13.4l-1,0.5v-3.5c0-18.8-10.9-29.2-25.3-40.6c-12.4-9.9-20.3-16.3-20.3-27.2c0-6.9,3.5-13.4,11.4-14.9
				c7.4-1.5,11.4,3,11.4,16.8v4c0,2,1.5,3.5,3.5,3l13.4-2.5c0.5,0,1.5-0.5,2-1c3-1.5,7.4-5.9,8.4-7.4c1.5-2.5-2-3.5-2-4.9
				C-178,1736.6-180.5,1732.1-182.9,1731.1L-182.9,1731.1z"/>
			<path class="st2" d="M-417.3,1747c-0.5,0-1.5,0.5-3,1c-1-1-2-1-3.5-1l-44.1,7.4l-3-4l-5.5,5c-1,1-2,2-2.5,3c-0.5,1-1,2-1,3v129.8
				c0,3,2,4.5,5,4l12.9-2.5c1,0,1.5-0.5,2.5-0.5c0.5,0,0.5-0.5,1-0.5c2-1,6.9-6.9,6.9-6.9s-3-6.4-3-7.9c0-0.5-1-1.5-2-2.5v-42.1
				c0-1,1-2,2-2.5l21.3-3.5c1,0,1.5-0.5,2.5-1c2-1,7.4-6.9,7.4-6.9s1-5,1-6.5c0,0-3-6.9-4-6.9c-0.5,0-2,1-3.5,2c-1-0.5-2-1-3.5-0.5
				l-21.3,3.5c-1,0.5-2-0.5-2-1.5v-34.2c0-1,1-2,2-2.5l30.7-5.4c0.5,0,1.5-0.5,2-1c1-1,7.9-7.4,7.9-7.4s3-3,0.5-6.4
				C-413.4,1752.9-416.4,1747-417.3,1747L-417.3,1747z"/>
			<path class="st2" d="M-338.1,1854c-1,0-1-0.5-2,0.5l-12.4-39.6c-0.5-1-3-6.5-2-6.9c10.9-7.4,18.3-12.4,18.3-34.2
				c0-23.8-5.5-40.6-32.7-36.2l-22.8,4c1-2,1.5-3.5,1.5-3.5c-4.5,0.5-3-3-6.4,0.5c-1.5,2-4.5,4-5.9,5.5c-1.5,1.5-2.5,3-2.5,4.4
				v130.3c0,3,2,4.5,5,4l13.4-2.5c0.5,0,1.5-0.5,2-0.5c1.5-0.5,6.9-6.5,6.9-6.5s2.5-2.5,3-4.5c0,0-3.5-3-6.4-4.9v-40.6
				c0-1,1-2,2-2.5l4.5-1c1-0.5,2,0.5,2.5,1.5l13.9,49.1c1,2.5,3.5,4,6.4,3.5l12.4-2.5c1.5-0.5,2-0.5,2.5-1c2.5-1.5,6.4-5.5,6.4-5.5
				s1.5-2,1.5-2.5C-330.1,1863-337.1,1854-338.1,1854L-338.1,1854z M-372.7,1801.5l-6.9,1c-1,0.5-2-0.5-2-1.5v-39.6c0-1,1-2,2-2.5
				l6.9-1c10.4-1.5,13.4,2.5,13.4,19.8C-359.4,1794.1-362.3,1799.5-372.7,1801.5z"/>
			<path class="st2" d="M-260.3,1840.7h-1.5c0-1.5-0.5-3-1.5-2.5l-31.7,5.4c-1,0.5-2-0.5-2-1.5V1804c0-1,1-2,2-2.5l20.3-3.5
				c1-0.5,2-0.5,3-1.5c2.5-1.5,6.4-6,6.9-6.9c0.5-0.5,1-2.5,1-3c0.5-2.5-3.5-2.5-5.9-2.5v-1.5c0-2-1-3.5-3-4h-1.5l-20.3,3.5
				c-1,0.5-2-0.5-2-1.5V1747c0-1,1-2,2-2.5l30.2-5.4c1-0.5,1.5-0.5,2.5-1c3-2,6.9-5.9,7.4-7.4c1-1.5-1.5-3-1.5-5c0,0-1.5-0.5-4-1v-2
				c0-3-2.5-4.5-5-4l-45.1,7.9l-1-4.5l-7.4,6.9c-1,1-1.5,2.5-1.5,4V1863c0,3,2.5,4.5,5,4l49.6-8.9c1.5-0.5,2.5-0.5,3-1
				c2-1,8.4-6.9,8.4-6.9s1.5-2,1.5-4C-252.8,1847.6-259.3,1840.7-260.3,1840.7L-260.3,1840.7z"/>
			<path class="st2" d="M-91.8,1813.9c0,0-2.5-2.5-4-3.5v-116c0-3-2-4.5-5-4l-7.9,1.5l-1.5-4l-5.5,5.5c-1.5,1.5-3,3-3,5v52
				c0,1-1,2-2,2.5l-20.8,3.5c-1,0.5-2-0.5-2-1.5v-52c0-3-2-4.4-5-4l-7.9,1.5l-1-4.5c0,0-5.9,5.5-6.4,6c-1.5,1-2.5,3.5-2.5,4.9v129.8
				c0,3,2.5,4.5,5,4l11.9-2c2-0.5,3.5-1.5,4.5-2.5c1.5-1,4.5-3.5,5.5-5c3-2.5,1.5-3,1.5-3c0.5-3-0.5-4.9-1.5-6.4l-0.5-0.5
				c-1-2.5-1.5-4.5-2-4.5c-0.5,0-1,0.5-1.5,0.5v-38.2c0-1,1-2,2-2.5l20.8-3.5c1-0.5,2,0.5,2,1.5v53.5c0,3,2,4.5,5,4l13.4-2.5
				c3-0.5,10.4-8.9,10.4-8.9S-92.3,1815.4-91.8,1813.9L-91.8,1813.9z"/>
			<path class="st2" d="M-114.1,1650.9c18.8-35.7,21.3-104.6-7.9-116.5c-5.5-2.5-10.9-3-15.9-2.5l-1-3c-1.5,0.5-6.9,3-11.4,6.4
				c-5,4-10.4,9.4-11.4,11.9c-9.4,11.4-14.9,28.7-18.3,49.5c-1,7.9-4.5,18.3-7.4,26.8c-8.9,26.3-31.7,74.8-38.7,14.4
				c18.3-25.8,53.5-133.3,18.8-146.7l0.5-4.5l-3-1.5c0,0-5-0.5-8.9,1.5c-4.5,2.5-10.4,9.4-12.9,13.4c-0.5,0.5-0.5,0.5-0.5,1
				c-9.4,14.4-15.4,39.6-17.3,64.9c-2.5,28.7-3,53.5,2.5,73.3c2.5,9.4,1.5,12.9,0,15.4c-10.4,15.9-47.1,52.5-52-13.4
				c16.8-23.3,51.5-138.3,16.8-149.7l0.5-1l-11.9-1l-6.4,6.4c-24.3,21.3-30.7,104.6-22.3,148.2c0,0.5,1.5,6.9,1.5,8.4l-1-1
				c-2.5,3-32.7,49.1-60.5,41.6c-6.9-1.5-12.4-6.9-14.9-17.8c-1.5-5.5-2-14.4-2.5-20.3v-9.9c1,0.5,2,0.5,3,0.5
				c2,0.5,4.5,0.5,6.4,0.5c4.5,0.5,9.4,0,14.4-1.5c5-1.5,11.4-4.5,15.9-8.4l1.5-1.5c1-1,5.5-4.9,7.4-7.4c2-2.5,4-7.4,4-7.4l-2,0.5
				c0.5-1,1-2,1-3c0.5-1,0.5-2.5,1-3.5c0.5-0.5,0.5-1,0.5-1.5v-2.5c1-8.4,0.5-16.8-2.5-25.3c-2.5-6-9.9-14.9-21.8-14.4l5.5-5
				c-4.5-1-17.8,5.9-17.8,5.9s-12.9,10.4-19.3,18.8c-10.9,13.4-16.8,28.3-19.8,43.1c-5.9-0.5-11.9-1-18.3-1.5l-2.5-0.5l-0.5-0.5
				c0.5-29.7,1.5-68.9,2.5-101.1c0.5-8.9-4-12.9-8.9-14.4l1-1.5l5-2.5c-4.5,1-12.4-2.5-14.9-1c-2.5,1-6.4,5-6.9,6.5
				c-0.5,1-1,1.5-0.5,2c1.5,14.4,2.5,62.9,1.5,111c-11.4-0.5-23.3,0.5-34.2,1.5c-3,0.5-6.4,1-8.9,1.5c1-28.3,2.5-61,2.5-61
				c0.5-11.4-5.9-14.9-12.9-15.9l5-2.5c-2.5-0.5-9.9-5-14.9,0l-4,4c-0.5,0.5-1,1-1,1.5c1,10.4,1.5,47.6,1,79.3
				c-10.4,4-19.8,8.4-25.3,11.4c-0.5,0.5-1,0.5-2,1h-2.5c0,0-4,3-6.9,6c-5,4-5,10.4-3.5,14.9c1,3.5,3.5,4.9,3.5,4.9
				c1,0.5,1.5,0.5,2.5,0s6.4-4,8.9-5.4c1-1,2.5-1.5,3.5-2.5c1.5-1,3-1.5,4.5-2.5c5.5-3,9.4-5.9,16.4-8.9c0,4.9-0.5,9.4-0.5,14.4
				c-1,21.8-2.5,83.3-2.5,83.3c-1.5,32.2,13.9,26.8,26.3,24.8c0.5,0,1-0.5,1-0.5c1.5-0.5,5.5-4.5,6.9-6.4c1-1-1.5-4.5-2.5-6l-4-2.5
				l-1.5,1.5c-1.5-24.8-1.5-64.9-0.5-96.6c0-6.4,0-13.4,0.5-20.8l10.4-3c10.4-2.5,21.3-4.5,32.7-5.5c-0.5,16.9-1,42.1-1.5,59
				c-1.5,30.2,12.9,22.8,24.8,20.8c0.5,0,1-0.5,1.5-0.5c1.5-1.5,3.5-3,6.4-6.4c1-1-1-3.5-1.5-5.5l-6.4-4.5c-1-17.8-1-40.6-1-63.4
				l6.9,0.5c4,0.5,8.4,0.5,12.9,0.5c0,2-0.5,3.5-0.5,5.5c0,3.5,0,7.4,0.5,10.9c0.5,6.9,2,14.4,4,20.8c2.5,6.4,5.5,12.9,9.9,18.3
				c2.5,2.5,5,5,8.4,6.9c41.6,20.8,74.8-36.7,80.8-47.6l0.5,1c18.3,75.3,69.9,10.4,75.3-3c12.4,31.7,26.3,35.2,39.2,23.8
				c5-3.5,11.4-10.4,11.4-10.4s1.5-2,0-3h-1c5.5-8.9,10.9-20.8,14.9-33.2c3.5,23.3,9.4,38.6,28.7,40.6c5,1,10.9,0,16.8-2.5
				c1.5-0.5,3.5-1.5,5-3l1-1c1-1,2.5-2,3.5-3l6.9-6.9c0,0,2.5-5.9,2.5-6.4C-113.6,1650.9-114.1,1650.9-114.1,1650.9L-114.1,1650.9z
				 M-398,1634.5c1-6.4,2.5-12.9,4.5-19.3c2-6.5,4.5-13.4,7.4-19.3c1.5-3,3.5-6,5.9-8.4c2.5-2.5,4.5-4.5,6.9-5c1-0.5,2-0.5,3-0.5
				h1.5c0.5,0,0.5,0.5,0.5,0.5s0.5,0,0.5,0.5c0.5,0,0.5,0.5,0.5,0.5c1.5,1,3,3.5,3.5,6.4c0.5,3,1,6,0.5,8.9c-0.5,3-1,6.4-1.5,9.9
				c-1.5,6.5-4.5,11.4-7.9,16.4c-1.5,2.5-3.5,4.5-6.4,6.4c-2.5,1.5-5.5,3-8.9,4c-1.5,0.5-3.5,0.5-5,0.5c-0.5,0-2.5-0.5-4.5-0.5v-1
				H-398z M-283.1,1510.6c11.9,3-5,86.2-19.8,114.5C-308.3,1573.6-296.4,1507.1-283.1,1510.6z M-209.2,1509.1
				c11.9,3-4.5,80.3-19.8,110.5C-234,1566.6-223.1,1505.7-209.2,1509.1z M-130.4,1649.9c-2.5,4.4-4.5,6.9-6.4,8.9
				c-2.5,2-8.4,4.5-11.9,1c-15.4-14.9-14.9-76.8-0.5-102.6c5-9.4,12.4-12.4,17.3-12.9c5.5,0,8.9,6,9.9,7.9
				C-110.6,1573.6-118,1626.6-130.4,1649.9L-130.4,1649.9z"/>
		</g>
		<path class="st0" d="M-115.1,1527c-11.4-5-20.8-2.5-30.2,4c-16.4,10.9-24.3,31.7-27.8,58.5c-1,8.4-4.5,18.3-7.4,26.8
			c-8.9,26.3-31.7,74.8-38.7,14.4c19.3-26.8,56-140.7,14.9-147.7c-23.8-4.5-36.2,36.7-39.6,76.8c-2.5,29.7-1.5,54.5,3,74.3
			c-3.5,4.9-45.6,76.3-51.5,0.5c16.8-23.8,52-140.2,15.9-150.2c-37.7-9.9-49.6,100.1-38.7,152.1c-5,7.9-33.7,55-60,48.1
			c-6.9-1.5-12.4-6.9-14.9-17.8c-1.5-5.4-2-14.4-2.5-20.3v-9.9c1,0.5,2,0.5,3,0.5c2,0.5,4.5,0.5,6.4,0.5c4.5,0.5,9.4,0,14.4-1.5
			c5-1.5,11.4-4.5,15.9-8.4c4-3.5,7.4-7.9,9.4-12.4c1-2.5,2-4.5,2.5-6.9c0.5-1,0.5-2.5,1-3.5c0.5-0.5,0.5-1,0.5-1.5v-1.5
			c1-8.4,0.5-16.8-2.5-25.3c-3-6.9-12.4-17.3-26.8-13.4c-10.4,2.5-23.8,15.4-26.8,18.8c-10.9,13.4-16.8,28.3-19.8,43.1
			c-6.4-0.5-13.4-1-20.3-1.5v-1c0.5-29.7,1.5-68.4,2.5-100.6c1-20.3-20.3-14.9-25.8-12.9l-1,1c1.5,14.4,2.5,63.4,1.5,111.5
			c-11.4-0.5-23.3,0.5-34.2,2c-3,0.5-6.4,1-8.9,1.5c1-28.3,2.5-61,2.5-61c1-20.8-20.8-15.4-26.3-13.9c-1,0.5-1,1-1,1.5
			c1,10.4,1.5,48.1,1,79.8c-10.4,4-19.8,8.4-25.3,11.4c-2.5,1.5-6.4,3.5-9.4,6c-6.4,4-6.4,10.9-5,16.3c1,3.5,3.5,5,3.5,5
			c1,0.5,1.5,0.5,2.5,0c1-0.5,6.4-4,8.9-5.4c1-1,2.5-1.5,3.5-2.5c1.5-1,3-1.5,4.5-2.5c5.5-3,9.4-6,16.4-8.9c0,5-0.5,9.4-0.5,14.4
			c-1,21.8-2.5,83.3-2.5,83.3c-1.5,32.2,13.9,26.8,26.3,24.8c0.5,0,1-0.5,1-1c-3-21.3-2.5-70.9-1.5-109c0-6.4,0-13.4,0.5-20.8
			l10.4-3c10.4-2.5,21.3-4.5,32.7-5.4c-0.5,16.8-1,42.1-1.5,59c-1.5,30.2,12.9,22.8,24.8,20.8c1,0,1.5-1,1-1.5
			c-2.5-18.3-2.5-49.1-2.5-79.3h3c4.5,0.5,10.4,0.5,16.4,1c0,2-0.5,3.5-0.5,5.4c0,3.5,0,7.4,0.5,10.9c0.5,6.9,2,14.4,4,20.8
			c2.5,6.4,5.5,12.9,9.9,18.3c2.5,2.5,5,5,8.4,6.9c42.1,20.8,75.3-38.2,80.8-48.1l0.5,1.5c18.3,75.3,69.9,10.4,75.3-3
			c21.8,56,49.6,24.8,64.9-21.3c3.5,23.3,8.9,38.2,28.7,39.6c5,1,10.9,0,16.8-2.5C-92.3,1650.4-77.9,1542.3-115.1,1527L-115.1,1527z
			 M-391.6,1627.6c1-6.4,2.5-12.9,4.5-19.3c2-6.5,4.5-13.4,7.4-19.3c1.5-3,3.5-6,5.9-8.4c2.5-2.5,4.5-4.5,6.9-5c1-0.5,2-0.5,3-0.5
			h1.5c0.5,0,0.5,0.5,0.5,0.5s0.5,0,0.5,0.5c0.5,0,0.5,0.5,0.5,0.5c1.5,1,3,3.5,3.5,6.4c0.5,3,1,6,0.5,8.9c-0.5,3-1,6.4-1.5,9.9
			c-1.5,6.5-4.5,11.4-7.9,16.4c-1.5,2.5-3.5,4.5-6.4,6.4c-2.5,1.5-5.5,3-8.9,4c-1.5,0.5-3.5,0.5-5,0.5c-0.5,0-2.5-0.5-4.5-0.5v-1
			H-391.6z M-276.1,1503.7c11.9,3-5,86.2-19.8,114.5C-301.4,1566.6-289.5,1500.2-276.1,1503.7z M-222.1,1612.7
			c-4.5-53,6.4-114,19.8-110.5C-190.4,1505.7-206.7,1582.5-222.1,1612.7z M-123.5,1643.4c-2.5,4.5-4.5,6.9-6.4,8.9
			c-2.5,2-8.4,4.5-11.9,1c-15.4-14.9-14.9-76.8-0.5-102.6c5-9.4,12.4-12.4,17.3-12.9c5.5,0,8.9,6,9.9,7.9
			C-103.7,1566.6-111.1,1620.1-123.5,1643.4L-123.5,1643.4z"/>
		<path class="st0" d="M-417.3,1741l-51,8.9c-3,0.5-5,3-5,5.5v129.8c0,3,2,4.5,5,4l13.4-2.5c3-0.5,5-3,5-5.5v-55c0-1,1-2,2-2.5
			l21.3-3.5c3-0.5,5-3,5-5.4v-10.4c0-3-2-4.4-5-4l-21.3,3.5c-1,0.5-2-0.5-2-1.5v-34.2c0-1,1-2,2-2.5l30.7-5.5c3-0.5,5-3,5-5.4v-10.4
			C-411.9,1742-414.4,1740.5-417.3,1741L-417.3,1741z"/>
		<path class="st0" d="M-346,1808c-0.5-1,0.5-2.5,1-3c10.9-7.4,14.9-16.3,14.9-38.2c0-23.8-5.5-40.6-32.7-36.2l-31.2,5.5
			c-3,0.5-5,3-5,5.4v129.8c0,3,2.5,4.5,5,4l13.4-2.5c3-0.5,5-3,5-5.4v-51.5c0-1,1-2,2-2.5l4.5-1c1-0.5,2,0.5,2.5,1.5l13.9,49.1
			c1,2.5,3.5,4,6.4,3.5l12.9-2.5c2.5-0.5,4-3,3.5-5.5L-346,1808z M-366.3,1794.6l-6.9,1c-1,0.5-2-0.5-2-1.5v-39.6c0-1,1-2,2-2.5
			l6.9-1c10.4-1.5,13.4,2.5,13.4,19.8C-352.9,1788.1-355.4,1793.1-366.3,1794.6z"/>
		<path class="st0" d="M-256.3,1831.2l-31.7,5.5c-1,0.5-2-0.5-2-1.5V1797c0-1,1-2,2-2.5l20.3-3.5c3-0.5,5-3,5-5.4v-9.9
			c0-3-2-4.5-5-4l-20.3,3.5c-1,0.5-2-0.5-2-1.5v-33.7c0-1,1-2,2-2.5l30.2-5.4c3-0.5,5-3,5-5.5v-10.4c0-3-2.5-4.5-5-4l-50.1,8.9
			c-3,0.5-5,3-5,5.4v129.8c0,3,2.5,4.4,5,4l51.5-8.9c3-0.5,5-3,5-5.5v-10.9C-251.8,1832.7-253.8,1830.7-256.3,1831.2L-256.3,1831.2z
			"/>
		<path class="st0" d="M-198.8,1763.3c-12.4-9.9-20.3-16.3-20.3-27.2c0-6.9,3.5-13.4,11.4-14.9c7.4-1.5,11.4,3,11.4,16.8v4
			c0,2,1.5,3.5,3.5,3l13.4-2.5c2.5-0.5,4.5-2.5,4.5-5v-4.5c0-26.3-12.4-35.7-32.7-32.2c-23.8,4.5-33.7,21.8-33.7,39.6
			c0,19.8,12.4,30.2,24.3,39.7c11.9,8.9,21.8,16.4,21.8,28.7c0,10.4-6.4,14.4-12.4,15.9c-8.9,1.5-12.9-4-12.9-14.9v-7.9
			c0-3-2-4.5-5-4l-11.9,2c-3,0.5-5,3-5,5.4v9.4c0,20.8,12.9,33.2,34.2,29.7c20.3-3.5,34.2-19.8,34.2-41.6
			C-173.5,1784.7-184.4,1774.7-198.8,1763.3L-198.8,1763.3z"/>
		<path class="st0" d="M-93.7,1683.6l-13.4,2.5c-3,0.5-5,3-5,5.4v52c0,1-1,2-2,2.5l-20.8,3.5c-1,0.5-2-0.5-2-1.5v-52c0-3-2-4.5-5-4
			l-13.4,2.5c-3,0.5-5,3-5,5.4v129.8c0,3,2.5,4.5,5,4l13.4-2.5c3-0.5,5-3,5-5.4v-53.5c0-1,1-2,2-2.5l20.8-3.5c1-0.5,2,0.5,2,1.5
			v53.5c0,3,2,4.5,5,4l13.4-2.5c3-0.5,5-3,5-5.5v-129.8C-88.8,1684.6-90.8,1683.1-93.7,1683.6z"/>
	</g>
</g>
</svg>
